# xmcd
#
# Track frame offsets:
#	150
#	15012
#	29887
#	40100
#	51150
#	64175
#	76575
#	88062
#	102512
#	115462
#	126175
#	138412
#	149725
#	161862
#	173750
#	188025
#	200700
#	216350
#	228500
#	243275
#	252587
#	265925
#	278812
#	292600
#	303337
#
# Disc length: 4225 seconds
#
# Revision: 3
# Processed by: cddbd v1.5.2PL0 Copyright (c) Steve Scherf et al.
# Submitted via: audiograbber 1.83.01
#
DISCID=73107f19
DTITLE=Various Artist - Park Avenue Hillbillies and West End Cowboys
DYEAR=2001
DGENRE=Country
TTITLE0=Hoosier Hot Shots - Them Hill-Billies Are Mountain Williams Now
TTITLE1=Dorothy Shay - Fuedin' and Fightin'
TTITLE2=The Four Lads - Way Out West
TTITLE3=Arthur Godfrey - I'm Goin' Back to Whur I Came From
TTITLE4=Dorothy Shay - Pappy's Predicament (or We Lost Him In Montana)
TTITLE5=Zeke Manners and His Swing Billies - Mr Ghost Goes To Town
TTITLE6=Dorothy Shay - Finishing School Was The Finish Of Me
TTITLE7=Dinah Shore - Doin' What Comes Natur'lly
TTITLE8=The Modernaires - The Beautiful Blonde From Bashful Bend
TTITLE9=Dorothy Shay - What Fer Didja
TTITLE10=Tiny Hill and His Orchestra - I Get A Kick Outa Corn
TTITLE11=Dorothy Shay - (You'll Be Just) Another Notch In Father's Shotgun (Eff
TTITLE11=en You Don't Marry Me)
TTITLE12=Tommy Tucker Time - L'il Abner
TTITLE13=Arthur Godfrey and Laurie Anders - I Like The Wide Open Spaces
TTITLE14=Dorothy Shay - Mountain Lullaby
TTITLE15=Hoosier Hot Shots - That's Where I Meet My Girl
TTITLE16=Dorothy Shay - Joan of Arkansaw
TTITLE17=Zeke Manners and His Swing Billies - Leave It Up To Uncle Jake
TTITLE18=Dorothy Shay - It's The Little Things That Count
TTITLE19=Dinah Shore - Buttons and Bows
TTITLE20=Arthur Godfrey - Slap 'Er Down Agin, Paw
TTITLE21=Dorothy Shay - Agnes Clung
TTITLE22=Tony Pastor and his Orchestra - I'm My Own Grandpaw
TTITLE23=Doris Day and The Modernaires - It's A Quiet Town (in Crossbone County)
TTITLE24=Dorothy Shay - I've Been to Hollywood
EXTD=
EXTT0=
EXTT1=
EXTT2=
EXTT3=
EXTT4=
EXTT5=
EXTT6=
EXTT7=
EXTT8=
EXTT9=
EXTT10=
EXTT11=
EXTT12=
EXTT13=
EXTT14=
EXTT15=
EXTT16=
EXTT17=
EXTT18=
EXTT19=
EXTT20=
EXTT21=
EXTT22=
EXTT23=
EXTT24=
PLAYORDER=
